<svg viewBox="0 0 25 24" fill="none" color="currentColor" xmlns="http://www.w3.org/2000/svg">
  <path d="M21.0653 2.83325H15.7319C15.1796 2.83325 14.7319 3.28097 14.7319 3.83325V9.16659C14.7319 9.71887 15.1796 10.1666 15.7319 10.1666H21.0653C21.6176 10.1666 22.0653 9.71887 22.0653 9.16658V3.83325C22.0653 3.28097 21.6176 2.83325 21.0653 2.83325Z" stroke="currentColor" stroke-width="2" stroke-linecap="round" stroke-linejoin="round"/>
  <path d="M21.0653 13.8333H15.7319C15.1796 13.8333 14.7319 14.281 14.7319 14.8333V20.1666C14.7319 20.7189 15.1796 21.1666 15.7319 21.1666H21.0653C21.6176 21.1666 22.0653 20.7189 22.0653 20.1666V14.8333C22.0653 14.281 21.6176 13.8333 21.0653 13.8333Z" stroke="currentColor" stroke-width="2" stroke-linecap="round" stroke-linejoin="round"/>
  <path d="M10.0653 2.83325H4.73193C4.17965 2.83325 3.73193 3.28097 3.73193 3.83325V9.16659C3.73193 9.71887 4.17965 10.1666 4.73193 10.1666H10.0653C10.6176 10.1666 11.0653 9.71887 11.0653 9.16658V3.83325C11.0653 3.28097 10.6176 2.83325 10.0653 2.83325Z" stroke="currentColor" stroke-width="2" stroke-linecap="round" stroke-linejoin="round"/>
  <path d="M10.0653 13.8333H4.73193C4.17965 13.8333 3.73193 14.281 3.73193 14.8333V20.1666C3.73193 20.7189 4.17965 21.1666 4.73193 21.1666H10.0653C10.6176 21.1666 11.0653 20.7189 11.0653 20.1666V14.8333C11.0653 14.281 10.6176 13.8333 10.0653 13.8333Z" stroke="currentColor" stroke-width="2" stroke-linecap="round" stroke-linejoin="round"/>
</svg>
