<svg viewBox="0 0 14 14" fill="none" color="currentColor" xmlns="http://www.w3.org/2000/svg">
  <path d="M11.8307 1.16663H9.16406C8.61178 1.16663 8.16406 1.61434 8.16406 2.16663V4.83329C8.16406 5.38558 8.61178 5.83329 9.16406 5.83329H11.8307C12.383 5.83329 12.8307 5.38558 12.8307 4.83329V2.16663C12.8307 1.61434 12.383 1.16663 11.8307 1.16663Z" stroke="currentColor" stroke-width="2" stroke-linecap="round" stroke-linejoin="round"/>
  <path d="M11.8307 8.16663H9.16406C8.61178 8.16663 8.16406 8.61434 8.16406 9.16663V11.8333C8.16406 12.3856 8.61178 12.8333 9.16406 12.8333H11.8307C12.383 12.8333 12.8307 12.3856 12.8307 11.8333V9.16663C12.8307 8.61434 12.383 8.16663 11.8307 8.16663Z" stroke="currentColor" stroke-width="2" stroke-linecap="round" stroke-linejoin="round"/>
  <path d="M4.83073 1.16663H2.16406C1.61178 1.16663 1.16406 1.61434 1.16406 2.16663V4.83329C1.16406 5.38558 1.61178 5.83329 2.16406 5.83329H4.83073C5.38301 5.83329 5.83073 5.38558 5.83073 4.83329V2.16663C5.83073 1.61434 5.38301 1.16663 4.83073 1.16663Z" stroke="currentColor" stroke-width="2" stroke-linecap="round" stroke-linejoin="round"/>
  <path d="M4.83073 8.16663H2.16406C1.61178 8.16663 1.16406 8.61434 1.16406 9.16663V11.8333C1.16406 12.3856 1.61178 12.8333 2.16406 12.8333H4.83073C5.38301 12.8333 5.83073 12.3856 5.83073 11.8333V9.16663C5.83073 8.61434 5.38301 8.16663 4.83073 8.16663Z" stroke="currentColor" stroke-width="2" stroke-linecap="round" stroke-linejoin="round"/>
</svg>
