<svg viewBox="0 0 24 18" fill="none" color="currentColor" xmlns="http://www.w3.org/2000/svg">
  <path d="M1 6.89978H22.7828" stroke="currentColor" stroke-width="2" stroke-linecap="round" stroke-linejoin="round"/>
  <path d="M21.2267 13.1234V15.4573C21.2267 15.6636 21.1447 15.8615 20.9988 16.0074C20.8529 16.1533 20.6551 16.2352 20.4487 16.2352H18.1149C17.9085 16.2352 17.7107 16.1533 17.5648 16.0074C17.4189 15.8615 17.3369 15.6636 17.3369 15.4573V13.1234" stroke="currentColor" stroke-width="2" stroke-linecap="round" stroke-linejoin="round"/>
  <path d="M6.44594 13.1234V15.4573C6.44594 15.6636 6.36397 15.8615 6.21808 16.0074C6.07218 16.1533 5.87431 16.2352 5.66798 16.2352H3.33411C3.12778 16.2352 2.92991 16.1533 2.78401 16.0074C2.63812 15.8615 2.55615 15.6636 2.55615 15.4573V13.1234" stroke="currentColor" stroke-width="2" stroke-linecap="round" stroke-linejoin="round"/>
  <path d="M21.2271 7.4183L18.3206 1.42351C18.2595 1.29745 18.1598 1.19035 18.0336 1.11518C17.9075 1.04001 17.7602 1 17.6097 1H6.17355C6.02307 1 5.87582 1.04001 5.74963 1.11518C5.62345 1.19035 5.52377 1.29745 5.46265 1.42351L2.55615 7.4183V13.1235H21.2271V7.4183Z" stroke="currentColor" stroke-width="2" stroke-linecap="round" stroke-linejoin="round"/>
  <path d="M4.96582 9.67944L7.89135 10.3437" stroke="currentColor" stroke-width="2" stroke-linecap="round" stroke-linejoin="round"/>
  <path d="M18.8169 9.67944L15.8914 10.3437" stroke="currentColor" stroke-width="2" stroke-linecap="round" stroke-linejoin="round"/>
</svg>
