<svg viewBox="0 0 23 22" fill="none" color="currentColor" xmlns="http://www.w3.org/2000/svg">
  <path d="M11.7009 20.2472C16.808 20.2472 20.9481 16.1071 20.9481 10.9999C20.9481 5.89283 16.808 1.75269 11.7009 1.75269C6.59375 1.75269 2.45361 5.89283 2.45361 10.9999C2.45361 16.1071 6.59375 20.2472 11.7009 20.2472Z" stroke="currentColor" stroke-width="2" stroke-linecap="round" stroke-linejoin="round"/>
  <path d="M4.14893 16.3357L5.2738 15.6566C5.38679 15.5884 5.48038 15.4923 5.54557 15.3776C5.61077 15.2628 5.6454 15.1332 5.64614 15.0013L5.66568 11.5211C5.66649 11.3757 5.70843 11.2335 5.78664 11.1109L7.69799 8.11541C7.75449 8.02688 7.82848 7.95082 7.91544 7.89192C8.00239 7.83302 8.10047 7.79251 8.20365 7.77289C8.30682 7.75327 8.41292 7.75494 8.51543 7.77781C8.61793 7.80068 8.71468 7.84427 8.79973 7.90589L10.6931 9.27763C10.8535 9.39381 11.0524 9.4438 11.2486 9.41722L14.281 9.00656C14.467 8.98137 14.6374 8.88915 14.7603 8.74722L16.8946 6.28121C17.0241 6.1315 17.0911 5.93767 17.0816 5.73991L16.9691 3.39886" stroke="currentColor" stroke-width="2" stroke-linecap="round" stroke-linejoin="round"/>
  <path d="M17.3932 18.2903L16.3595 17.2545C16.2628 17.1576 16.1421 17.0882 16.0097 17.0535L13.9427 16.511C13.7592 16.4629 13.6 16.3488 13.4954 16.1906C13.3908 16.0323 13.3483 15.8411 13.3759 15.6534L13.6056 14.0933C13.625 13.9616 13.6782 13.8372 13.76 13.7322C13.8417 13.6272 13.9493 13.5451 14.0722 13.494L17.0054 12.2748C17.1409 12.2185 17.2896 12.2021 17.4342 12.2274C17.5787 12.2527 17.713 12.3188 17.8212 12.4178L20.2192 14.6109" stroke="currentColor" stroke-width="2" stroke-linecap="round" stroke-linejoin="round"/>
</svg>
