<svg viewBox="0 0 8 8" fill="none" color="currentColor" xmlns="http://www.w3.org/2000/svg">
  <path d="M3.99989 4.20468C4.56506 4.20468 5.02322 3.74652 5.02322 3.18135C5.02322 2.61618 4.56506 2.15802 3.99989 2.15802C3.43472 2.15802 2.97656 2.61618 2.97656 3.18135C2.97656 3.74652 3.43472 4.20468 3.99989 4.20468Z" stroke="currentColor" stroke-width="0.6" stroke-linecap="round" stroke-linejoin="round"/>
  <path d="M6.66067 3.19709C6.66067 5.60585 4.00001 7.47933 4.00001 7.47933C4.00001 7.47933 1.33936 5.60585 1.33936 3.19709C1.33936 2.48727 1.61967 1.80651 2.11864 1.30459C2.61761 0.802668 3.29436 0.520691 4.00001 0.520691C4.70566 0.520691 5.38241 0.802668 5.88138 1.30459C6.38035 1.80651 6.66067 2.48727 6.66067 3.19709V3.19709Z" stroke="currentColor" stroke-width="0.6" stroke-linecap="round" stroke-linejoin="round"/>
</svg>
