<svg viewBox="0 0 24 24" fill="none" color="currentColor" xmlns="http://www.w3.org/2000/svg">
  <path d="M22.3336 10.8172L20.0671 11.9505L17.1328 6.33113L19.4224 5.18633C19.5944 5.10032 19.7933 5.08531 19.9763 5.14452C20.1593 5.20373 20.3117 5.33243 20.4007 5.50291L22.6558 9.82155C22.7009 9.9079 22.7284 10.0024 22.7365 10.0995C22.7447 10.1965 22.7335 10.2943 22.7035 10.3869C22.6735 10.4796 22.6254 10.5654 22.5619 10.6393C22.4984 10.7132 22.4208 10.7737 22.3336 10.8172V10.8172Z" stroke="currentColor" stroke-width="2" stroke-linecap="round" stroke-linejoin="round"/>
  <path d="M3.92985 11.8519L1.66332 10.7186C1.57619 10.675 1.4986 10.6145 1.4351 10.5407C1.37159 10.4668 1.32344 10.381 1.29344 10.2883C1.26345 10.1956 1.25222 10.0979 1.26041 10.0008C1.26859 9.90375 1.29603 9.80928 1.34113 9.72292L3.59622 5.40428C3.68524 5.2338 3.83764 5.1051 4.02062 5.04589C4.20361 4.98668 4.40252 5.00169 4.57454 5.0877L6.86414 6.2325L3.92985 11.8519Z" stroke="currentColor" stroke-width="2" stroke-linecap="round" stroke-linejoin="round"/>
  <path d="M20.0683 11.9503L18.6012 13.6667L15.227 17.0409C15.1374 17.1305 15.0262 17.1953 14.9041 17.2291C14.782 17.2629 14.6532 17.2646 14.5303 17.2338L9.21589 15.9052C9.11621 15.8803 9.02287 15.8347 8.94193 15.7714L3.92969 11.8521" stroke="currentColor" stroke-width="2" stroke-linecap="round" stroke-linejoin="round"/>
  <path d="M18.602 13.6663L14.5674 10.732L13.3937 11.6123C12.8858 11.9932 12.268 12.1992 11.6331 12.1992C10.9982 12.1992 10.3804 11.9932 9.87252 11.6123L9.37546 11.2395C9.29138 11.1764 9.22183 11.096 9.17152 11.0038C9.12122 10.9115 9.09133 10.8095 9.08388 10.7046C9.07643 10.5998 9.09159 10.4946 9.12834 10.3961C9.16509 10.2977 9.22257 10.2082 9.29689 10.1339L12.8854 6.54543C12.9535 6.47731 13.0344 6.42327 13.1234 6.38641C13.2124 6.34954 13.3078 6.33057 13.4041 6.33057H17.1349" stroke="currentColor" stroke-width="2" stroke-linecap="round" stroke-linejoin="round"/>
  <path d="M6.91797 6.23278L11.6238 4.86086C11.7919 4.81185 11.972 4.82459 12.1316 4.89678L15.3014 6.33106" stroke="currentColor" stroke-width="2" stroke-linecap="round" stroke-linejoin="round"/>
  <path d="M10.5334 19.1685L7.76976 18.4776C7.65761 18.4495 7.55368 18.3954 7.46643 18.3195L5.39844 16.522" stroke="currentColor" stroke-width="2" stroke-linecap="round" stroke-linejoin="round"/>
</svg>
