<svg viewBox="0 0 8 8" fill="none" color="currentColor" xmlns="http://www.w3.org/2000/svg">
  <g>
    <path d="M4.88654 7.05126V5.27791C4.88654 5.19952 4.85541 5.12434 4.79998 5.06892C4.74455 5.01349 4.66938 4.98235 4.59099 4.98235H3.40878C3.3304 4.98235 3.25522 5.01349 3.19979 5.06892C3.14437 5.12434 3.11323 5.19952 3.11323 5.27791V7.05126C3.11323 7.12964 3.08209 7.20481 3.02668 7.26023C2.97126 7.31566 2.89609 7.3468 2.81771 7.34681L1.04461 7.34704C1.0058 7.34705 0.967361 7.33941 0.931499 7.32456C0.895636 7.30971 0.86305 7.28794 0.835602 7.26049C0.808153 7.23305 0.78638 7.20046 0.771525 7.1646C0.756669 7.12874 0.749023 7.09031 0.749023 7.05149V3.63563C0.749023 3.59445 0.757627 3.55373 0.774284 3.51607C0.79094 3.47841 0.815282 3.44465 0.845747 3.41695L3.80107 0.729833C3.85547 0.680367 3.92636 0.652957 3.99989 0.652954C4.07342 0.652952 4.14431 0.680358 4.19871 0.729819L7.15444 3.41695C7.18491 3.44465 7.20926 3.47841 7.22592 3.51607C7.24258 3.55373 7.25118 3.59446 7.25118 3.63564V7.05149C7.25118 7.09031 7.24354 7.12874 7.22868 7.16461C7.21383 7.20047 7.19205 7.23305 7.1646 7.26049C7.13716 7.28794 7.10457 7.30971 7.06871 7.32456C7.03285 7.33941 6.99441 7.34705 6.95559 7.34705L5.18206 7.34681C5.10368 7.3468 5.02852 7.31566 4.9731 7.26023C4.91768 7.20481 4.88654 7.12964 4.88654 7.05126Z" stroke="currentColor" stroke-width="0.6" stroke-linecap="round" stroke-linejoin="round"/>
  </g>
</svg>
