<svg viewBox="0 0 24 24" fill="none" color="currentColor" xmlns="http://www.w3.org/2000/svg">
  <path d="M8.40947 14.9342C10.9397 14.9342 12.9908 12.883 12.9908 10.3528C12.9908 7.82262 10.9397 5.77148 8.40947 5.77148C5.87926 5.77148 3.82812 7.82262 3.82812 10.3528C3.82812 12.883 5.87926 14.9342 8.40947 14.9342Z" stroke="currentColor" stroke-width="2" stroke-miterlimit="10"/>
  <path d="M14.3516 5.94221C14.9817 5.76467 15.6426 5.72423 16.2896 5.8236C16.9367 5.92298 17.555 6.15986 18.1028 6.5183C18.6506 6.87674 19.1153 7.34841 19.4654 7.90155C19.8156 8.45468 20.0432 9.07644 20.1328 9.72493C20.2225 10.3734 20.1721 11.0336 19.9852 11.661C19.7982 12.2884 19.4789 12.8684 19.0489 13.3621C18.6189 13.8557 18.0881 14.2514 17.4922 14.5226C16.8964 14.7938 16.2493 14.9342 15.5947 14.9343" stroke="currentColor" stroke-width="2" stroke-linecap="round" stroke-linejoin="round"/>
  <path d="M2.06641 18.2293C2.78192 17.2116 3.73181 16.3809 4.83588 15.8074C5.93994 15.234 7.16578 14.9346 8.40989 14.9346C9.65399 14.9345 10.8799 15.2338 11.984 15.8072C13.0881 16.3805 14.038 17.2111 14.7536 18.2288" stroke="currentColor" stroke-width="2" stroke-linecap="round" stroke-linejoin="round"/>
  <path d="M15.5938 14.9346C16.838 14.9337 18.0641 15.2326 19.1683 15.806C20.2725 16.3795 21.2223 17.2105 21.9372 18.2288" stroke="currentColor" stroke-width="2" stroke-linecap="round" stroke-linejoin="round"/>
</svg>
