<svg viewBox="0 0 18 18" fill="none" color="currentColor" xmlns="http://www.w3.org/2000/svg">
  <path d="M16.3342 4.48896L13.4295 7.21638L16.1917 14.8122L14.1201 16.8838L9.99347 10.8434L7.9053 12.7406V14.8122L5.83371 16.8838L4.60867 13.2711L1 12.0501L3.07159 9.9785H5.14318L7.21477 7.90691L1 3.76373L3.07159 1.69214L10.6674 4.45426L13.4046 1.55929L13.3458 1.60836C13.5381 1.41565 13.7664 1.26273 14.0179 1.15834C14.2693 1.05396 14.5388 1.00015 14.8111 1C15.0833 0.999851 15.3529 1.05336 15.6044 1.15747C15.856 1.26158 16.0845 1.41425 16.277 1.60676C16.4695 1.79926 16.6222 2.02781 16.7263 2.27935C16.8304 2.5309 16.8839 2.80049 16.8838 3.07273C16.8836 3.34496 16.8298 3.6145 16.7254 3.86593C16.6211 4.11736 16.4681 4.34574 16.2754 4.53803L16.3342 4.48896Z" stroke="currentColor" stroke-width="2" stroke-linecap="round" stroke-linejoin="round"/>
</svg>
