<svg viewBox="0 0 24 24" fill="none" color="currentColor" xmlns="http://www.w3.org/2000/svg">
  <path d="M11.7556 17.1557L10.1336 21.5582C10.0858 21.6878 9.9995 21.7996 9.88621 21.8786C9.77291 21.9576 9.63812 22 9.5 22C9.36188 22 9.22709 21.9576 9.11379 21.8786C9.0005 21.7996 8.91415 21.6878 8.86641 21.5582L7.24444 17.1557C7.21066 17.064 7.15739 16.9808 7.0883 16.9117C7.01921 16.8426 6.93596 16.7893 6.84427 16.7556L2.4418 15.1336C2.3122 15.0858 2.20035 14.9995 2.12135 14.8862C2.04236 14.7729 2 14.6381 2 14.5C2 14.3619 2.04236 14.2271 2.12135 14.1138C2.20035 14.0005 2.3122 13.9142 2.4418 13.8664L6.84427 12.2444C6.93596 12.2107 7.01921 12.1574 7.0883 12.0883C7.15739 12.0192 7.21066 11.936 7.24444 11.8443L8.86641 7.4418C8.91415 7.3122 9.0005 7.20035 9.11379 7.12135C9.22709 7.04236 9.36188 7 9.5 7C9.63812 7 9.77291 7.04236 9.88621 7.12135C9.9995 7.20035 10.0858 7.3122 10.1336 7.4418L11.7556 11.8443C11.7893 11.936 11.8426 12.0192 11.9117 12.0883C11.9808 12.1574 12.064 12.2107 12.1557 12.2444L16.5582 13.8664C16.6878 13.9142 16.7996 14.0005 16.8786 14.1138C16.9576 14.2271 17 14.3619 17 14.5C17 14.6381 16.9576 14.7729 16.8786 14.8862C16.7996 14.9995 16.6878 15.0858 16.5582 15.1336L12.1557 16.7556C12.064 16.7893 11.9808 16.8426 11.9117 16.9117C11.8426 16.9808 11.7893 17.064 11.7556 17.1557V17.1557Z" stroke="currentColor" stroke-width="2" stroke-linecap="round" stroke-linejoin="round"/>
  <path d="M15 3V7" stroke="currentColor" stroke-width="2" stroke-linecap="round" stroke-linejoin="round"/>
  <path d="M17 5H13" stroke="currentColor" stroke-width="2" stroke-linecap="round" stroke-linejoin="round"/>
  <path d="M19 8V12" stroke="currentColor" stroke-width="2" stroke-linecap="round" stroke-linejoin="round"/>
  <path d="M21 10L17 10" stroke="currentColor" stroke-width="2" stroke-linecap="round" stroke-linejoin="round"/>
</svg>
