<svg viewBox="0 0 24 24" fill="currentColor" xmlns="http://www.w3.org/2000/svg">
  <g>
    <path d="M12 21.5C11.3269 21.5 10.7813 20.9543 10.7813 20.2812L10.7813 7.04812L8.06129 9.69835C7.59277 10.1549 6.8454 10.1535 6.3785 9.69538V9.69538C5.89654 9.22244 5.89791 8.44563 6.38154 7.9744L11.3021 3.17997C11.6905 2.80161 12.3095 2.80161 12.6979 3.17997L17.6177 7.97369C18.1012 8.4448 18.1012 9.22186 17.6177 9.69298V9.69298C17.1522 10.1465 16.4103 10.1472 15.944 9.69441L13.2188 7.04812L13.2188 20.2812C13.2188 20.9543 12.6731 21.5 12 21.5V21.5Z" />
  </g>
  <defs>
    <rect width="24" height="24" transform="matrix(1.31134e-07 1 1 -1.31134e-07 0 0)"/>
  </defs>
</svg>
