<svg viewBox="0 0 41 42" fill="none" xmlns="http://www.w3.org/2000/svg">
<g filter="url(#filter0_f_3_5523)">
<circle cx="20.5" cy="20.5" r="19.5" fill="#2400FF" fill-opacity="0.2"/>
<circle cx="20.5" cy="20.5" r="19.25" stroke="url(#paint0_linear_3_5523)" stroke-width="0.5"/>
</g>
<g filter="url(#filter1_f_3_5523)">
<path fill-rule="evenodd" clip-rule="evenodd" d="M19.9879 8.00139C23.2826 8.06078 25.8286 10.4596 28.2445 12.6835C30.7981 15.0341 34.325 17.4384 33.976 20.8774C33.6322 24.2639 29.3311 25.3494 26.7334 27.5717C24.4798 29.4997 22.9263 32.3798 19.9879 32.8445C16.6676 33.3696 12.9323 32.5913 10.6848 30.1097C8.50077 27.6982 9.0145 24.1171 9.14987 20.8774C9.27708 17.8334 9.45757 14.7186 11.4257 12.3804C13.5655 9.83817 16.6506 7.94123 19.9879 8.00139Z" fill="url(#paint1_linear_3_5523)"/>
<path fill-rule="evenodd" clip-rule="evenodd" d="M19.9879 8.00139C23.2826 8.06078 25.8286 10.4596 28.2445 12.6835C30.7981 15.0341 34.325 17.4384 33.976 20.8774C33.6322 24.2639 29.3311 25.3494 26.7334 27.5717C24.4798 29.4997 22.9263 32.3798 19.9879 32.8445C16.6676 33.3696 12.9323 32.5913 10.6848 30.1097C8.50077 27.6982 9.0145 24.1171 9.14987 20.8774C9.27708 17.8334 9.45757 14.7186 11.4257 12.3804C13.5655 9.83817 16.6506 7.94123 19.9879 8.00139Z" stroke="url(#paint2_linear_3_5523)" stroke-width="0.2"/>
</g>
<g filter="url(#filter2_f_3_5523)">
<path fill-rule="evenodd" clip-rule="evenodd" d="M9.22375 17.7088C10.3907 14.627 13.5076 13.0392 16.416 11.5146C19.4899 9.90333 22.9428 7.39379 26.0627 8.8821C29.1348 10.3477 28.7063 14.763 29.9225 17.9579C30.9776 20.7297 33.1651 23.1634 32.6116 26.0864C31.9863 29.3892 29.994 32.6433 26.8999 33.9223C23.8931 35.1652 20.695 33.4739 17.6908 32.254C14.8679 31.1077 11.9964 29.8874 10.4589 27.2461C8.78718 24.3743 8.04172 20.8303 9.22375 17.7088Z" fill="url(#paint3_linear_3_5523)"/>
<path fill-rule="evenodd" clip-rule="evenodd" d="M9.22375 17.7088C10.3907 14.627 13.5076 13.0392 16.416 11.5146C19.4899 9.90333 22.9428 7.39379 26.0627 8.8821C29.1348 10.3477 28.7063 14.763 29.9225 17.9579C30.9776 20.7297 33.1651 23.1634 32.6116 26.0864C31.9863 29.3892 29.994 32.6433 26.8999 33.9223C23.8931 35.1652 20.695 33.4739 17.6908 32.254C14.8679 31.1077 11.9964 29.8874 10.4589 27.2461C8.78718 24.3743 8.04172 20.8303 9.22375 17.7088Z" stroke="url(#paint4_linear_3_5523)" stroke-width="0.2"/>
</g>
<g filter="url(#filter3_dd_3_5523)">
<path fill-rule="evenodd" clip-rule="evenodd" d="M19.9879 8.00139C23.2826 8.06078 25.8286 10.4596 28.2445 12.6835C30.7981 15.0341 34.325 17.4384 33.976 20.8774C33.6322 24.2639 29.3311 25.3494 26.7334 27.5717C24.4798 29.4997 22.9263 32.3798 19.9879 32.8445C16.6676 33.3696 12.9323 32.5913 10.6848 30.1097C8.50077 27.6982 9.0145 24.1171 9.14987 20.8774C9.27708 17.8334 9.45757 14.7186 11.4257 12.3804C13.5655 9.83817 16.6506 7.94123 19.9879 8.00139Z" fill="url(#paint5_linear_3_5523)" shape-rendering="crispEdges"/>
<path fill-rule="evenodd" clip-rule="evenodd" d="M19.9879 8.00139C23.2826 8.06078 25.8286 10.4596 28.2445 12.6835C30.7981 15.0341 34.325 17.4384 33.976 20.8774C33.6322 24.2639 29.3311 25.3494 26.7334 27.5717C24.4798 29.4997 22.9263 32.3798 19.9879 32.8445C16.6676 33.3696 12.9323 32.5913 10.6848 30.1097C8.50077 27.6982 9.0145 24.1171 9.14987 20.8774C9.27708 17.8334 9.45757 14.7186 11.4257 12.3804C13.5655 9.83817 16.6506 7.94123 19.9879 8.00139Z" stroke="url(#paint6_linear_3_5523)" stroke-width="0.2" shape-rendering="crispEdges"/>
</g>
<g filter="url(#filter4_d_3_5523)">
<path fill-rule="evenodd" clip-rule="evenodd" d="M9.22375 17.7088C10.3907 14.627 13.5076 13.0392 16.416 11.5146C19.4899 9.90333 22.9428 7.39379 26.0627 8.8821C29.1348 10.3477 28.7063 14.763 29.9225 17.9579C30.9776 20.7297 33.1651 23.1634 32.6116 26.0864C31.9863 29.3892 29.994 32.6433 26.8999 33.9223C23.8931 35.1652 20.695 33.4739 17.6908 32.254C14.8679 31.1077 11.9964 29.8874 10.4589 27.2461C8.78718 24.3743 8.04172 20.8303 9.22375 17.7088Z" fill="url(#paint7_linear_3_5523)" shape-rendering="crispEdges"/>
<path fill-rule="evenodd" clip-rule="evenodd" d="M9.22375 17.7088C10.3907 14.627 13.5076 13.0392 16.416 11.5146C19.4899 9.90333 22.9428 7.39379 26.0627 8.8821C29.1348 10.3477 28.7063 14.763 29.9225 17.9579C30.9776 20.7297 33.1651 23.1634 32.6116 26.0864C31.9863 29.3892 29.994 32.6433 26.8999 33.9223C23.8931 35.1652 20.695 33.4739 17.6908 32.254C14.8679 31.1077 11.9964 29.8874 10.4589 27.2461C8.78718 24.3743 8.04172 20.8303 9.22375 17.7088Z" stroke="url(#paint8_linear_3_5523)" stroke-width="0.2" shape-rendering="crispEdges"/>
</g>
<mask id="mask0_3_5523" style="mask-type:alpha" maskUnits="userSpaceOnUse" x="1" y="1" width="39" height="39">
<circle cx="20.5" cy="20.5" r="14.5" stroke="url(#paint9_linear_3_5523)" stroke-width="10"/>
</mask>
<g mask="url(#mask0_3_5523)">
<g filter="url(#filter5_f_3_5523)">
<path fill-rule="evenodd" clip-rule="evenodd" d="M18.4554 0.928332L18.0823 1.82106C17.7092 2.71378 16.9629 4.49924 15.9216 5.88296C14.8802 7.26668 13.5436 8.24868 11.7939 8.66826C10.0441 9.08783 7.88109 8.94499 6.07229 9.28423C4.26349 9.62346 2.80888 10.4448 2.08158 10.8554L1.35428 11.2661L1.00008 10.784L1.66836 10.293C2.33663 9.802 3.67317 8.82 5.00971 7.838C6.34626 6.85601 7.6828 5.87401 9.01935 4.89202C10.3559 3.91002 11.6924 2.92802 13.029 1.94603C14.3655 0.964031 15.7021 -0.017965 16.3703 -0.508963L17.0386 -0.999961L18.4554 0.928332Z" fill="#0099FF" fill-opacity="0.2"/>
<path fill-rule="evenodd" clip-rule="evenodd" d="M18.4554 0.928332L18.0823 1.82106C17.7092 2.71378 16.9629 4.49924 15.9216 5.88296C14.8802 7.26668 13.5436 8.24868 11.7939 8.66826C10.0441 9.08783 7.88109 8.94499 6.07229 9.28423C4.26349 9.62346 2.80888 10.4448 2.08158 10.8554L1.35428 11.2661L1.00008 10.784L1.66836 10.293C2.33663 9.802 3.67317 8.82 5.00971 7.838C6.34626 6.85601 7.6828 5.87401 9.01935 4.89202C10.3559 3.91002 11.6924 2.92802 13.029 1.94603C14.3655 0.964031 15.7021 -0.017965 16.3703 -0.508963L17.0386 -0.999961L18.4554 0.928332Z" stroke="black"/>
</g>
<g filter="url(#filter6_f_3_5523)">
<path fill-rule="evenodd" clip-rule="evenodd" d="M5 35.2279L5.9 35.5028C6.8 35.7776 8.6 36.3273 10.4 37.0145C12.2 37.7017 14 38.5262 15.8 37.9765C17.6 37.4268 19.4 35.5028 21.2 35.0905C23 34.6782 24.8 35.7776 26.6 36.3273C28.4 36.8771 30.2 36.8771 31.1 36.8771H32V41H31.1C30.2 41 28.4 41 26.6 41C24.8 41 23 41 21.2 41C19.4 41 17.6 41 15.8 41C14 41 12.2 41 10.4 41C8.6 41 6.8 41 5.9 41H5V35.2279Z" fill="#FF00D6" fill-opacity="0.2"/>
<path fill-rule="evenodd" clip-rule="evenodd" d="M5 35.2279L5.9 35.5028C6.8 35.7776 8.6 36.3273 10.4 37.0145C12.2 37.7017 14 38.5262 15.8 37.9765C17.6 37.4268 19.4 35.5028 21.2 35.0905C23 34.6782 24.8 35.7776 26.6 36.3273C28.4 36.8771 30.2 36.8771 31.1 36.8771H32V41H31.1C30.2 41 28.4 41 26.6 41C24.8 41 23 41 21.2 41C19.4 41 17.6 41 15.8 41C14 41 12.2 41 10.4 41C8.6 41 6.8 41 5.9 41H5V35.2279Z" stroke="black"/>
</g>
</g>
<defs>
<filter id="filter0_f_3_5523" x="0.5" y="0.5" width="40" height="40" filterUnits="userSpaceOnUse" color-interpolation-filters="sRGB">
<feFlood flood-opacity="0" result="BackgroundImageFix"/>
<feBlend mode="normal" in="SourceGraphic" in2="BackgroundImageFix" result="shape"/>
<feGaussianBlur stdDeviation="0.25" result="effect1_foregroundBlur_3_5523"/>
</filter>
<filter id="filter1_f_3_5523" x="4.8999" y="3.90002" width="33.2002" height="33.1999" filterUnits="userSpaceOnUse" color-interpolation-filters="sRGB">
<feFlood flood-opacity="0" result="BackgroundImageFix"/>
<feBlend mode="normal" in="SourceGraphic" in2="BackgroundImageFix" result="shape"/>
<feGaussianBlur stdDeviation="2" result="effect1_foregroundBlur_3_5523"/>
</filter>
<filter id="filter2_f_3_5523" x="4.54688" y="4.32788" width="32.2529" height="34.1297" filterUnits="userSpaceOnUse" color-interpolation-filters="sRGB">
<feFlood flood-opacity="0" result="BackgroundImageFix"/>
<feBlend mode="normal" in="SourceGraphic" in2="BackgroundImageFix" result="shape"/>
<feGaussianBlur stdDeviation="2" result="effect1_foregroundBlur_3_5523"/>
</filter>
<filter id="filter3_dd_3_5523" x="4.8999" y="3.90002" width="33.2002" height="37.1999" filterUnits="userSpaceOnUse" color-interpolation-filters="sRGB">
<feFlood flood-opacity="0" result="BackgroundImageFix"/>
<feColorMatrix in="SourceAlpha" type="matrix" values="0 0 0 0 0 0 0 0 0 0 0 0 0 0 0 0 0 0 127 0" result="hardAlpha"/>
<feOffset/>
<feGaussianBlur stdDeviation="2"/>
<feComposite in2="hardAlpha" operator="out"/>
<feColorMatrix type="matrix" values="0 0 0 0 1 0 0 0 0 1 0 0 0 0 1 0 0 0 0.25 0"/>
<feBlend mode="normal" in2="BackgroundImageFix" result="effect1_dropShadow_3_5523"/>
<feColorMatrix in="SourceAlpha" type="matrix" values="0 0 0 0 0 0 0 0 0 0 0 0 0 0 0 0 0 0 127 0" result="hardAlpha"/>
<feOffset dy="4"/>
<feGaussianBlur stdDeviation="2"/>
<feComposite in2="hardAlpha" operator="out"/>
<feColorMatrix type="matrix" values="0 0 0 0 0 0 0 0 0 0 0 0 0 0 0 0 0 0 0.25 0"/>
<feBlend mode="normal" in2="effect1_dropShadow_3_5523" result="effect2_dropShadow_3_5523"/>
<feBlend mode="normal" in="SourceGraphic" in2="effect2_dropShadow_3_5523" result="shape"/>
</filter>
<filter id="filter4_d_3_5523" x="4.54688" y="4.32788" width="32.2529" height="34.1297" filterUnits="userSpaceOnUse" color-interpolation-filters="sRGB">
<feFlood flood-opacity="0" result="BackgroundImageFix"/>
<feColorMatrix in="SourceAlpha" type="matrix" values="0 0 0 0 0 0 0 0 0 0 0 0 0 0 0 0 0 0 127 0" result="hardAlpha"/>
<feOffset/>
<feGaussianBlur stdDeviation="2"/>
<feComposite in2="hardAlpha" operator="out"/>
<feColorMatrix type="matrix" values="0 0 0 0 1 0 0 0 0 1 0 0 0 0 1 0 0 0 0.25 0"/>
<feBlend mode="normal" in2="BackgroundImageFix" result="effect1_dropShadow_3_5523"/>
<feBlend mode="normal" in="SourceGraphic" in2="effect1_dropShadow_3_5523" result="shape"/>
</filter>
<filter id="filter5_f_3_5523" x="-1" y="-2.99994" width="21.4556" height="16.266" filterUnits="userSpaceOnUse" color-interpolation-filters="sRGB">
<feFlood flood-opacity="0" result="BackgroundImageFix"/>
<feBlend mode="normal" in="SourceGraphic" in2="BackgroundImageFix" result="shape"/>
<feGaussianBlur stdDeviation="1" result="effect1_foregroundBlur_3_5523"/>
</filter>
<filter id="filter6_f_3_5523" x="3" y="33" width="31" height="10" filterUnits="userSpaceOnUse" color-interpolation-filters="sRGB">
<feFlood flood-opacity="0" result="BackgroundImageFix"/>
<feBlend mode="normal" in="SourceGraphic" in2="BackgroundImageFix" result="shape"/>
<feGaussianBlur stdDeviation="1" result="effect1_foregroundBlur_3_5523"/>
</filter>
<linearGradient id="paint0_linear_3_5523" x1="20.5" y1="1" x2="20" y2="40" gradientUnits="userSpaceOnUse">
<stop stop-color="#E59CFF" stop-opacity="0.65"/>
<stop offset="1" stop-color="white"/>
</linearGradient>
<linearGradient id="paint1_linear_3_5523" x1="21.5" y1="8" x2="21.1795" y2="33" gradientUnits="userSpaceOnUse">
<stop stop-color="#230EFC"/>
<stop offset="0.375" stop-color="#0E7BFC" stop-opacity="0.67375"/>
<stop offset="1" stop-color="#230EFC" stop-opacity="0.13"/>
</linearGradient>
<linearGradient id="paint2_linear_3_5523" x1="12.5" y1="11.5" x2="27.5" y2="28.5" gradientUnits="userSpaceOnUse">
<stop stop-color="white" stop-opacity="0.5"/>
<stop offset="1" stop-color="white" stop-opacity="0"/>
</linearGradient>
<linearGradient id="paint3_linear_3_5523" x1="9.73236" y1="16.2847" x2="33.268" y2="24.7153" gradientUnits="userSpaceOnUse">
<stop stop-color="#FF00D6"/>
<stop offset="0.354167" stop-color="#FF00B8" stop-opacity="0.645833"/>
<stop offset="1" stop-color="#FF00D6" stop-opacity="0"/>
</linearGradient>
<linearGradient id="paint4_linear_3_5523" x1="32.0002" y1="28" x2="9.00018" y2="17.5" gradientUnits="userSpaceOnUse">
<stop stop-color="white" stop-opacity="0.49"/>
<stop offset="1" stop-color="white" stop-opacity="0"/>
</linearGradient>
<linearGradient id="paint5_linear_3_5523" x1="21.5" y1="8" x2="21.1795" y2="33" gradientUnits="userSpaceOnUse">
<stop stop-color="#230EFC"/>
<stop offset="0.375" stop-color="#0E7BFC" stop-opacity="0.67375"/>
<stop offset="1" stop-color="#230EFC" stop-opacity="0.13"/>
</linearGradient>
<linearGradient id="paint6_linear_3_5523" x1="12.5" y1="11.5" x2="27.5" y2="28.5" gradientUnits="userSpaceOnUse">
<stop stop-color="white" stop-opacity="0.5"/>
<stop offset="1" stop-color="white" stop-opacity="0"/>
</linearGradient>
<linearGradient id="paint7_linear_3_5523" x1="9.73236" y1="16.2847" x2="33.268" y2="24.7153" gradientUnits="userSpaceOnUse">
<stop stop-color="#FF00D6"/>
<stop offset="0.354167" stop-color="#FF00B8" stop-opacity="0.645833"/>
<stop offset="1" stop-color="#FF00D6" stop-opacity="0"/>
</linearGradient>
<linearGradient id="paint8_linear_3_5523" x1="32.0002" y1="28" x2="9.00018" y2="17.5" gradientUnits="userSpaceOnUse">
<stop stop-color="white" stop-opacity="0.49"/>
<stop offset="1" stop-color="white" stop-opacity="0"/>
</linearGradient>
<linearGradient id="paint9_linear_3_5523" x1="20.5" y1="1" x2="20" y2="40" gradientUnits="userSpaceOnUse">
<stop stop-color="#1700FF"/>
<stop offset="1" stop-color="white"/>
</linearGradient>
</defs>
</svg>
