<svg viewBox="0 0 25 24" fill="none" color="currentColor" xmlns="http://www.w3.org/2000/svg">
  <path d="M12.0987 15.6368C14.6091 15.6368 16.6441 13.6017 16.6441 11.0914C16.6441 8.58097 14.6091 6.5459 12.0987 6.5459C9.58829 6.5459 7.55322 8.58097 7.55322 11.0914C7.55322 13.6017 9.58829 15.6368 12.0987 15.6368Z" stroke="currentColor" stroke-width="2" stroke-linecap="round" stroke-linejoin="round"/>
  <path d="M21.191 2H3.00919C2.50711 2 2.1001 2.40701 2.1001 2.90909V21.0909C2.1001 21.593 2.50711 22 3.00919 22H21.191C21.6931 22 22.1001 21.593 22.1001 21.0909V2.90909C22.1001 2.40701 21.6931 2 21.191 2Z" stroke="currentColor" stroke-width="2" stroke-linecap="round" stroke-linejoin="round"/>
  <path d="M4.11963 22.0001C4.53208 20.1924 5.54614 18.5783 6.99573 17.4222C8.44533 16.2661 10.2445 15.6365 12.0987 15.6365C13.9529 15.6365 15.7521 16.2661 17.2017 17.4222C18.6513 18.5783 19.6653 20.1924 20.0778 22.0001" stroke="currentColor" stroke-width="2" stroke-linecap="round" stroke-linejoin="round"/>
</svg>
