<svg viewBox="0 0 24 24" fill="currentColor" xmlns="http://www.w3.org/2000/svg">
  <path fill="none" d="M5.00361 16.1502C3.99251 14.4457 3.63842 12.4308 4.00782 10.4837C4.37721 8.53667 5.4447 6.79142 7.00981 5.57572C8.57492 4.36001 10.53 3.75747 12.5079 3.88125C14.4859 4.00502 16.3506 4.84659 17.7519 6.24793C19.1533 7.64927 19.9948 9.51398 20.1186 11.4919C20.2424 13.4698 19.6399 15.4249 18.4242 16.99C17.2085 18.5552 15.4632 19.6226 13.5162 19.9921C11.5691 20.3615 9.55417 20.0074 7.8497 18.9963L7.84972 18.9962L5.03899 19.7993C4.9227 19.8325 4.79964 19.834 4.68257 19.8037C4.5655 19.7733 4.45866 19.7123 4.37314 19.6267C4.28763 19.5412 4.22653 19.4344 4.1962 19.3173C4.16586 19.2002 4.16738 19.0772 4.20061 18.9609L5.00367 16.1502L5.00361 16.1502Z" stroke="currentColor" stroke-width="2" stroke-linecap="round" stroke-linejoin="round"/>
</svg>
