<svg viewBox="0 0 25 24" fill="none" xmlns="http://www.w3.org/2000/svg">
<path fill-rule="evenodd" clip-rule="evenodd" d="M6.66652 20.7304C8.39323 21.8842 10.4233 22.5 12.5 22.5C15.2838 22.4969 17.9527 21.3896 19.9212 19.4212C21.8896 17.4527 22.9969 14.7838 23 12C23 9.9233 22.3842 7.89323 21.2304 6.16652C20.0767 4.4398 18.4368 3.09399 16.5182 2.29927C14.5996 1.50455 12.4884 1.29661 10.4516 1.70176C8.41476 2.1069 6.54383 3.10693 5.07538 4.57538C3.60693 6.04383 2.6069 7.91476 2.20176 9.95156C1.79661 11.9884 2.00455 14.0996 2.79927 16.0182C3.59399 17.9368 4.9398 19.5767 6.66652 20.7304ZM7.49987 4.51678C8.97992 3.52785 10.72 3 12.5 3C14.8861 3.00272 17.1737 3.95181 18.861 5.63905C20.5482 7.32629 21.4973 9.61389 21.5 12C21.5 13.78 20.9722 15.5201 19.9832 17.0001C18.9943 18.4802 17.5887 19.6337 15.9442 20.3149C14.2996 20.9961 12.49 21.1743 10.7442 20.8271C8.99836 20.4798 7.39472 19.6226 6.13604 18.364C4.87737 17.1053 4.0202 15.5016 3.67294 13.7558C3.32567 12.01 3.5039 10.2004 4.18509 8.55585C4.86628 6.91132 6.01983 5.50571 7.49987 4.51678ZM20 12C20 16.1421 16.6421 19.5 12.5 19.5C8.35786 19.5 5 16.1421 5 12C5 7.85786 8.35786 4.5 12.5 4.5C16.6421 4.5 20 7.85786 20 12Z" fill="url(#paint0_linear_51_120)"/>
<path fill-rule="evenodd" clip-rule="evenodd" d="M6.66652 20.7304C8.39323 21.8842 10.4233 22.5 12.5 22.5C15.2838 22.4969 17.9527 21.3896 19.9212 19.4212C21.8896 17.4527 22.9969 14.7838 23 12C23 9.9233 22.3842 7.89323 21.2304 6.16652C20.0767 4.4398 18.4368 3.09399 16.5182 2.29927C14.5996 1.50455 12.4884 1.29661 10.4516 1.70176C8.41476 2.1069 6.54383 3.10693 5.07538 4.57538C3.60693 6.04383 2.6069 7.91476 2.20176 9.95156C1.79661 11.9884 2.00455 14.0996 2.79927 16.0182C3.59399 17.9368 4.9398 19.5767 6.66652 20.7304ZM7.49987 4.51678C8.97992 3.52785 10.72 3 12.5 3C14.8861 3.00272 17.1737 3.95181 18.861 5.63905C20.5482 7.32629 21.4973 9.61389 21.5 12C21.5 13.78 20.9722 15.5201 19.9832 17.0001C18.9943 18.4802 17.5887 19.6337 15.9442 20.3149C14.2996 20.9961 12.49 21.1743 10.7442 20.8271C8.99836 20.4798 7.39472 19.6226 6.13604 18.364C4.87737 17.1053 4.0202 15.5016 3.67294 13.7558C3.32567 12.01 3.5039 10.2004 4.18509 8.55585C4.86628 6.91132 6.01983 5.50571 7.49987 4.51678ZM20 12C20 16.1421 16.6421 19.5 12.5 19.5C8.35786 19.5 5 16.1421 5 12C5 7.85786 8.35786 4.5 12.5 4.5C16.6421 4.5 20 7.85786 20 12Z" fill="url(#paint1_linear_51_120)"/>
<path fill-rule="evenodd" clip-rule="evenodd" d="M6.66652 20.7304C8.39323 21.8842 10.4233 22.5 12.5 22.5C15.2838 22.4969 17.9527 21.3896 19.9212 19.4212C21.8896 17.4527 22.9969 14.7838 23 12C23 9.9233 22.3842 7.89323 21.2304 6.16652C20.0767 4.4398 18.4368 3.09399 16.5182 2.29927C14.5996 1.50455 12.4884 1.29661 10.4516 1.70176C8.41476 2.1069 6.54383 3.10693 5.07538 4.57538C3.60693 6.04383 2.6069 7.91476 2.20176 9.95156C1.79661 11.9884 2.00455 14.0996 2.79927 16.0182C3.59399 17.9368 4.9398 19.5767 6.66652 20.7304ZM7.49987 4.51678C8.97992 3.52785 10.72 3 12.5 3C14.8861 3.00272 17.1737 3.95181 18.861 5.63905C20.5482 7.32629 21.4973 9.61389 21.5 12C21.5 13.78 20.9722 15.5201 19.9832 17.0001C18.9943 18.4802 17.5887 19.6337 15.9442 20.3149C14.2996 20.9961 12.49 21.1743 10.7442 20.8271C8.99836 20.4798 7.39472 19.6226 6.13604 18.364C4.87737 17.1053 4.0202 15.5016 3.67294 13.7558C3.32567 12.01 3.5039 10.2004 4.18509 8.55585C4.86628 6.91132 6.01983 5.50571 7.49987 4.51678ZM20 12C20 16.1421 16.6421 19.5 12.5 19.5C8.35786 19.5 5 16.1421 5 12C5 7.85786 8.35786 4.5 12.5 4.5C16.6421 4.5 20 7.85786 20 12Z" fill="url(#paint2_linear_51_120)"/>
<path fill-rule="evenodd" clip-rule="evenodd" d="M6.66652 20.7304C8.39323 21.8842 10.4233 22.5 12.5 22.5C15.2838 22.4969 17.9527 21.3896 19.9212 19.4212C21.8896 17.4527 22.9969 14.7838 23 12C23 9.9233 22.3842 7.89323 21.2304 6.16652C20.0767 4.4398 18.4368 3.09399 16.5182 2.29927C14.5996 1.50455 12.4884 1.29661 10.4516 1.70176C8.41476 2.1069 6.54383 3.10693 5.07538 4.57538C3.60693 6.04383 2.6069 7.91476 2.20176 9.95156C1.79661 11.9884 2.00455 14.0996 2.79927 16.0182C3.59399 17.9368 4.9398 19.5767 6.66652 20.7304ZM7.49987 4.51678C8.97992 3.52785 10.72 3 12.5 3C14.8861 3.00272 17.1737 3.95181 18.861 5.63905C20.5482 7.32629 21.4973 9.61389 21.5 12C21.5 13.78 20.9722 15.5201 19.9832 17.0001C18.9943 18.4802 17.5887 19.6337 15.9442 20.3149C14.2996 20.9961 12.49 21.1743 10.7442 20.8271C8.99836 20.4798 7.39472 19.6226 6.13604 18.364C4.87737 17.1053 4.0202 15.5016 3.67294 13.7558C3.32567 12.01 3.5039 10.2004 4.18509 8.55585C4.86628 6.91132 6.01983 5.50571 7.49987 4.51678ZM20 12C20 16.1421 16.6421 19.5 12.5 19.5C8.35786 19.5 5 16.1421 5 12C5 7.85786 8.35786 4.5 12.5 4.5C16.6421 4.5 20 7.85786 20 12Z" fill="url(#paint3_linear_51_120)"/>
<defs>
<linearGradient id="paint0_linear_51_120" x1="22.3194" y1="12" x2="7.05556" y2="20.1667" gradientUnits="userSpaceOnUse">
<stop stop-color="#4158D0"/>
<stop offset="0.554045" stop-color="#C850C0"/>
<stop offset="1" stop-color="#FFCC70"/>
</linearGradient>
<linearGradient id="paint1_linear_51_120" x1="12.5" y1="1.5" x2="12.5" y2="22.5" gradientUnits="userSpaceOnUse">
<stop stop-color="#0093E9"/>
<stop offset="1" stop-color="#80D0C7"/>
</linearGradient>
<linearGradient id="paint2_linear_51_120" x1="12.5" y1="1.5" x2="12.5" y2="22.5" gradientUnits="userSpaceOnUse">
<stop stop-color="#FAD961"/>
<stop offset="1" stop-color="#F76B1C"/>
</linearGradient>
<linearGradient id="paint3_linear_51_120" x1="6.5" y1="8.00001" x2="24.341" y2="13.7331" gradientUnits="userSpaceOnUse">
<stop stop-color="#8D98FF"/>
<stop offset="0.322917" stop-color="#FC03D7"/>
<stop offset="0.640625" stop-color="#2628FF"/>
<stop offset="0.901812" stop-color="#4D83FF"/>
</linearGradient>
</defs>
</svg>
