<svg viewBox="0 0 25 24" fill="none" color="currentColor" xmlns="http://www.w3.org/2000/svg">
  <path d="M13.3838 13C14.2122 13 14.8838 12.3284 14.8838 11.5C14.8838 10.6716 14.2122 10 13.3838 10C12.5554 10 11.8838 10.6716 11.8838 11.5C11.8838 12.3284 12.5554 13 13.3838 13Z" fill="currentColor"/>
  <path d="M21.3838 13C22.2122 13 22.8838 12.3284 22.8838 11.5C22.8838 10.6716 22.2122 10 21.3838 10C20.5554 10 19.8838 10.6716 19.8838 11.5C19.8838 12.3284 20.5554 13 21.3838 13Z" fill="currentColor"/>
  <path d="M5.38379 13C6.21222 13 6.88379 12.3284 6.88379 11.5C6.88379 10.6716 6.21222 10 5.38379 10C4.55536 10 3.88379 10.6716 3.88379 11.5C3.88379 12.3284 4.55536 13 5.38379 13Z" fill="currentColor"/>
</svg>
