<svg viewBox="0 0 17 16" fill="none" color="currentColor" xmlns="http://www.w3.org/2000/svg">
  <path d="M5.58894 1.94164C5.58648 1.69577 5.86461 1.55151 6.06418 1.69515L7.13343 2.46473C7.21348 2.52235 7.31674 2.53694 7.40962 2.50375L8.58935 2.08223C8.83025 1.99615 9.06145 2.23174 8.97085 2.47097L8.53611 3.61902C8.5009 3.71201 8.51405 3.8164 8.57122 3.89775L9.28635 4.91543C9.43408 5.12566 9.2664 5.41221 9.01076 5.3864L7.7306 5.25714C7.61467 5.24544 7.50244 5.30193 7.44277 5.40202L6.78398 6.50723C6.65242 6.72794 6.32237 6.69191 6.24152 6.44802L5.85015 5.26738C5.81886 5.173 5.74285 5.10025 5.64719 5.07314L4.46878 4.73916C4.22222 4.66928 4.17113 4.34239 4.38462 4.20062L5.46779 3.48129C5.5524 3.42511 5.60283 3.32993 5.60182 3.22838L5.58894 1.94164Z" fill="currentColor"/>
  <path d="M12.7987 4.07446C12.9561 3.88553 13.2615 3.95576 13.3205 4.19445L13.5357 5.06465C13.5593 5.16039 13.6286 5.23839 13.7208 5.27326L14.5004 5.56792C14.7397 5.65836 14.7633 5.9876 14.5393 6.1112L13.8274 6.50407C13.7404 6.55211 13.6828 6.64016 13.6737 6.73917L13.5979 7.56029C13.5743 7.81615 13.261 7.92588 13.0829 7.74063L12.4923 7.12625C12.4116 7.04224 12.2895 7.01259 12.1792 7.05021L11.3726 7.32534C11.1294 7.40829 10.9013 7.16708 10.9977 6.92889L11.3069 6.16447C11.3442 6.0723 11.3334 5.96764 11.2781 5.88503L10.8272 5.21174C10.6846 4.9988 10.8574 4.71666 11.1119 4.74691L11.9754 4.84956C12.0762 4.86154 12.1763 4.82169 12.2413 4.74366L12.7987 4.07446Z" fill="currentColor"/>
  <path d="M9.04924 6.63482C9.21492 6.45782 9.51125 6.54027 9.56169 6.77742L10.0396 9.02447C10.06 9.12001 10.1255 9.19967 10.2154 9.238L12.3 10.1273C12.5377 10.2287 12.5445 10.5633 12.3109 10.6742L10.3389 11.6109C10.2471 11.6544 10.1837 11.7414 10.1702 11.8421L9.88023 14.0087C9.84632 14.2621 9.53134 14.3596 9.36012 14.1698L7.79299 12.4325C7.71695 12.3481 7.59984 12.314 7.4904 12.3442L5.23502 12.9667C4.9886 13.0348 4.77546 12.7832 4.88307 12.5513L5.80326 10.5685C5.846 10.4764 5.83926 10.3689 5.78534 10.2829L4.62744 8.43531C4.48992 8.21589 4.67632 7.93702 4.93165 7.98019L7.2405 8.37053C7.33973 8.3873 7.44076 8.35321 7.50953 8.27974L9.04924 6.63482Z" fill="currentColor"/>
</svg>
