<svg viewBox="0 0 25 24" fill="none" color="currentColor" xmlns="http://www.w3.org/2000/svg">
  <path d="M14.4062 10L17.002 10" stroke="currentColor" stroke-width="2" stroke-linecap="round" stroke-linejoin="round"/>
  <path d="M7.14062 10H9.99854" stroke="currentColor" stroke-width="2" stroke-linecap="round" stroke-linejoin="round"/>
  <path d="M8.57031 8.50001V11.5" stroke="currentColor" stroke-width="2" stroke-linecap="round" stroke-linejoin="round"/>
  <path d="M16.2503 5L8.21109 5.02273C7.09439 5.02281 6.0134 5.3991 5.15788 6.08555C4.30236 6.77199 3.72699 7.72472 3.53278 8.77649L3.53356 8.77663L2.03883 16.1291C1.94442 16.6414 2.02322 17.1692 2.2638 17.6358C2.50438 18.1023 2.89421 18.4834 3.37666 18.7236C3.85911 18.9638 4.40907 19.0507 4.94665 18.9715C5.48424 18.8924 5.98146 18.6515 6.3661 18.2837L6.36595 18.2835L10.3151 14.1082L16.2503 14.0855C17.51 14.0855 18.7181 13.6069 19.6088 12.7549C20.4996 11.903 21 10.7475 21 9.54274C21 8.33793 20.4996 7.18246 19.6088 6.33054C18.7181 5.47861 17.51 5 16.2503 5V5Z" stroke="currentColor" stroke-width="2" stroke-linecap="round" stroke-linejoin="round"/>
  <path d="M20.9094 8.8446L22.958 16.198C23.0602 16.6981 22.9749 17.2131 22.7144 17.6685C22.4539 18.1239 22.0318 18.4958 21.5095 18.7302C20.9871 18.9646 20.3916 19.0494 19.8096 18.9722C19.2275 18.895 18.6892 18.6598 18.2727 18.3009L14 14.2113" stroke="currentColor" stroke-width="2" stroke-linecap="round" stroke-linejoin="round"/>
</svg>
