<svg viewBox="0 0 14 12" fill="none" color="currentColor" xmlns="http://www.w3.org/2000/svg">
  <path d="M7.34648 10.8655L12.0363 6.21451C13.1886 5.07172 13.3586 3.19165 12.2681 1.99066C11.995 1.68896 11.6627 1.44562 11.2916 1.27548C10.9205 1.10535 10.5183 1.01198 10.1096 1.00108C9.7009 0.990179 9.29424 1.06198 8.91445 1.21209C8.53465 1.3622 8.18967 1.58748 7.90056 1.87418L7.01909 2.74836L6.25803 1.9936C5.1057 0.850799 3.20994 0.682198 1.99893 1.76367C1.69471 2.03456 1.44934 2.36408 1.27778 2.73212C1.10622 3.10017 1.01208 3.49902 1.00109 3.90434C0.990097 4.30966 1.06249 4.71295 1.21386 5.08961C1.36522 5.46626 1.59238 5.80838 1.88148 6.0951L6.69169 10.8655C6.77852 10.9516 6.89629 11 7.01909 11C7.14189 11 7.25965 10.9516 7.34648 10.8655V10.8655Z" stroke="currentColor" stroke-linecap="round" stroke-linejoin="round"/>
</svg>
