<svg viewBox="0 0 24 24" fill="none" color="currentColor" xmlns="http://www.w3.org/2000/svg">
  <path fill-rule="evenodd" clip-rule="evenodd" d="M12.4124 20.6367L18.861 11.0927C19.1144 10.7178 19.0117 10.2112 18.6317 9.96126C18.4958 9.87191 18.3362 9.82423 18.173 9.82423H13.1026V3.81592C13.1026 3.3653 12.7324 3 12.2756 3C11.9992 3 11.741 3.13634 11.5876 3.36333L5.13897 12.9073C4.88564 13.2822 4.98832 13.7888 5.36833 14.0387C5.50416 14.1281 5.66377 14.1758 5.82703 14.1758H10.8974V20.1841C10.8974 20.6347 11.2676 21 11.7244 21C12.0008 21 12.259 20.8637 12.4124 20.6367Z" stroke="currentColor" stroke-width="2"/>
  <path d="M17.752 3.73035L20 1" stroke="currentColor" stroke-width="2" stroke-linecap="round"/>
  <path d="M6.96729 20.4496L5 23" stroke="currentColor" stroke-width="2" stroke-linecap="round"/>
  <path d="M19 6.75049L20.3913 4.99995" stroke="currentColor" stroke-width="2" stroke-linecap="round"/>
  <path d="M5.67139 17.8879L3.8252 20.09" stroke="currentColor" stroke-width="2" stroke-linecap="round"/>
</svg>
