<svg viewBox="0 0 24 22" fill="none" color="currentColor" xmlns="http://www.w3.org/2000/svg">
  <path d="M2.77939 11.6543C1.90933 10.1876 1.60462 8.45372 1.9225 6.77823C2.24037 5.10275 3.15896 3.60094 4.50577 2.5548C5.85257 1.50867 7.53495 0.990172 9.237 1.09668C10.939 1.20319 12.5437 1.92738 13.7495 3.13325C14.9554 4.33913 15.6796 5.94374 15.7861 7.64579C15.8926 9.34783 15.3742 11.0302 14.328 12.377C13.2819 13.7238 11.7801 14.6424 10.1046 14.9603C8.42913 15.2782 6.69523 14.9735 5.2285 14.1034L5.22852 14.1034L2.80984 14.7944C2.70977 14.823 2.60388 14.8243 2.50314 14.7982C2.40239 14.7721 2.31046 14.7195 2.23687 14.6459C2.16328 14.5724 2.11071 14.4804 2.0846 14.3797C2.0585 14.2789 2.05981 14.173 2.0884 14.073L2.77945 11.6543L2.77939 11.6543Z" stroke="currentColor" stroke-width="2" stroke-linecap="round" stroke-linejoin="round"/>
  <path d="M8.80371 15.8461C9.15781 16.9051 9.73043 17.8683 10.4803 18.6662C11.2302 19.464 12.1388 20.0768 13.1405 20.4602C14.1422 20.8436 15.2121 20.9883 16.2732 20.8836C17.3344 20.779 18.3603 20.4277 19.2771 19.8551L21.7648 20.6039C21.8678 20.6349 21.9767 20.6363 22.0803 20.6081C22.1839 20.5798 22.2785 20.5228 22.3542 20.443C22.4299 20.3633 22.4839 20.2637 22.5108 20.1545C22.5376 20.0453 22.5363 19.9306 22.5069 19.8221L21.7961 17.2011C22.4276 16.0789 22.7741 14.8042 22.8019 13.5C22.8297 12.1957 22.538 10.9059 21.9549 9.75498C21.3718 8.60407 20.517 7.63091 19.473 6.9294C18.429 6.22788 17.231 5.82169 15.9946 5.75" stroke="currentColor" stroke-width="2" stroke-linecap="round" stroke-linejoin="round"/>
</svg>
