<svg viewBox="0 0 24 24" color="currentColor" fill="none" xmlns="http://www.w3.org/2000/svg">
  <path d="M19.3928 7.54755L16.4881 10.275L19.2502 17.8708L17.1787 19.9424L13.0521 13.902L10.9639 15.7992V17.8708L8.8923 19.9424L7.66726 16.3297L4.05859 15.1087L6.13018 13.0371H8.20177L10.2734 10.9655L4.05859 6.82232L6.13018 4.75073L13.726 7.51285L16.4631 4.61788L16.4044 4.66696C16.5966 4.47425 16.825 4.32133 17.0765 4.21694C17.3279 4.11255 17.5974 4.05874 17.8697 4.05859C18.1419 4.05844 18.4115 4.11196 18.663 4.21607C18.9146 4.32018 19.1431 4.47285 19.3356 4.66535C19.5281 4.85785 19.6808 5.0864 19.7849 5.33795C19.889 5.58949 19.9425 5.85909 19.9424 6.13132C19.9422 6.40356 19.8884 6.6731 19.784 6.92452C19.6797 7.17595 19.5267 7.40434 19.334 7.59663L19.3928 7.54755Z" stroke="currentColor" stroke-width="2" stroke-linecap="round" stroke-linejoin="round"/>
</svg>
