<svg viewBox="0 0 24 24" fill="currentColor" xmlns="http://www.w3.org/2000/svg">
  <path d="M5.98959 18.0104C5.23734 17.2582 5.73628 15.6788 5.35339 14.7534C4.95647 13.7941 3.5 13.022 3.5 12C3.5 10.9779 4.95648 10.2058 5.35339 9.24655C5.73628 8.32116 5.23734 6.74184 5.98959 5.98959C6.74184 5.23734 8.32116 5.73628 9.24656 5.35339C10.2059 4.95647 10.978 3.5 12 3.5C13.0221 3.5 13.7942 4.95648 14.7534 5.35339C15.6788 5.73628 17.2582 5.23734 18.0104 5.98959C18.7627 6.74184 18.2637 8.32116 18.6466 9.24656C19.0435 10.2059 20.5 10.978 20.5 12C20.5 13.0221 19.0435 13.7942 18.6466 14.7534C18.2637 15.6788 18.7627 17.2582 18.0104 18.0104C17.2582 18.7627 15.6788 18.2637 14.7534 18.6466C13.7941 19.0435 13.022 20.5 12 20.5C10.9779 20.5 10.2058 19.0435 9.24655 18.6466C8.32116 18.2637 6.74184 18.7627 5.98959 18.0104Z" stroke-width="2" stroke-linecap="round" stroke-linejoin="round"/>
  <path d="M15.5 10.5L10.8333 14.5L8.5 12.5" stroke="white" stroke-width="2" stroke-linecap="round" stroke-linejoin="round"/>
</svg>
